<svg xmlns="http://www.w3.org/2000/svg" id="prefix__bxl-instagram" width="17.365" height="17.365" viewBox="0 0 17.365 17.365">
    <defs>
        <style>
            .prefix__cls-1{fill:#24268c}
        </style>
    </defs>
    <path id="prefix__Trazado_13" d="M4.566 0a4.553 4.553 0 1 0 4.566 4.553A4.559 4.559 0 0 0 4.566 0zm0 7.511a2.957 2.957 0 1 1 2.965-2.957 2.963 2.963 0 0 1-2.965 2.957z" class="prefix__cls-1" data-name="Trazado 13" transform="translate(4.11 4.108)"/>
    <circle id="prefix__Elipse_7" cx="1.013" cy="1.013" r="1.013" class="prefix__cls-1" data-name="Elipse 7" transform="translate(12.315 3.018)"/>
    <path id="prefix__Trazado_14" d="M16.906 2.991a4.437 4.437 0 0 0-2.54-2.535 6.379 6.379 0 0 0-2.108-.4C11.33.012 11.036 0 8.681 0S6.024 0 5.1.052A6.329 6.329 0 0 0 3 .456 4.432 4.432 0 0 0 .458 2.991a6.331 6.331 0 0 0-.4 2.1C.013 6.021 0 6.315 0 8.667s0 2.651.054 3.572a6.342 6.342 0 0 0 .4 2.106A4.442 4.442 0 0 0 3 16.879a6.358 6.358 0 0 0 2.107.433c.929.04 1.223.053 3.578.053s2.657 0 3.578-.053a6.388 6.388 0 0 0 2.108-.4 4.445 4.445 0 0 0 2.539-2.535 6.331 6.331 0 0 0 .4-2.1c.041-.926.054-1.22.054-3.572s0-2.651-.054-3.572a6.328 6.328 0 0 0-.404-2.142zm-1.175 9.178a4.849 4.849 0 0 1-.3 1.625 2.878 2.878 0 0 1-1.651 1.647 4.814 4.814 0 0 1-1.61.3c-.916.042-1.175.053-3.524.053s-2.591 0-3.525-.053a4.789 4.789 0 0 1-1.609-.3 2.876 2.876 0 0 1-1.658-1.647 4.885 4.885 0 0 1-.3-1.607c-.041-.915-.051-1.173-.051-3.518s0-2.586.051-3.519a4.844 4.844 0 0 1 .3-1.624 2.877 2.877 0 0 1 1.658-1.649 4.837 4.837 0 0 1 1.609-.3c.917-.041 1.175-.053 3.525-.053s2.591 0 3.524.053a4.79 4.79 0 0 1 1.61.3 2.883 2.883 0 0 1 1.651 1.648 4.885 4.885 0 0 1 .3 1.607c.041.916.052 1.173.052 3.519s0 2.6-.041 3.518h-.011z" class="prefix__cls-1" data-name="Trazado 14"/>
</svg>
